<?xml version="1.0" encoding="UTF-8" standalone="no"?>
<!-- Created with Inkscape (http://www.inkscape.org/) -->

<svg
   xmlns:dc="http://purl.org/dc/elements/1.1/"
   xmlns:cc="http://creativecommons.org/ns#"
   xmlns:rdf="http://www.w3.org/1999/02/22-rdf-syntax-ns#"
   xmlns:svg="http://www.w3.org/2000/svg"
   xmlns="http://www.w3.org/2000/svg"
   xmlns:sodipodi="http://sodipodi.sourceforge.net/DTD/sodipodi-0.dtd"
   xmlns:inkscape="http://www.inkscape.org/namespaces/inkscape"
   width="19"
   height="19"
   id="svg2"
   version="1.1"
   inkscape:version="0.48.2 r9819"
   inkscape:export-filename="/Users/wit/Workspace/Misc/page2reader/artwork/icon-128x128.png"
   inkscape:export-xdpi="606.3158"
   inkscape:export-ydpi="606.3158"
   sodipodi:docname="icon.svg">
  <defs
     id="defs4">
    <filter
       inkscape:collect="always"
       id="filter4385"
       color-interpolation-filters="sRGB">
      <feGaussianBlur
         inkscape:collect="always"
         stdDeviation="0.18048834"
         id="feGaussianBlur4387" />
    </filter>
    <filter
       inkscape:collect="always"
       id="filter4395"
       color-interpolation-filters="sRGB">
      <feGaussianBlur
         inkscape:collect="always"
         stdDeviation="0.36097669"
         id="feGaussianBlur4397" />
    </filter>
    <filter
       inkscape:collect="always"
       id="filter4401"
       x="-0.10677966"
       width="1.2135593"
       y="-0.10677966"
       height="1.2135593"
       color-interpolation-filters="sRGB">
      <feGaussianBlur
         inkscape:collect="always"
         stdDeviation="0.94756381"
         id="feGaussianBlur4403" />
    </filter>
    <filter
       inkscape:collect="always"
       id="filter4508"
       color-interpolation-filters="sRGB">
      <feGaussianBlur
         inkscape:collect="always"
         stdDeviation="0.26765162"
         id="feGaussianBlur4510" />
    </filter>
    <filter
       inkscape:collect="always"
       id="filter4512"
       color-interpolation-filters="sRGB">
      <feGaussianBlur
         inkscape:collect="always"
         stdDeviation="0.22414033"
         id="feGaussianBlur4514" />
    </filter>
    <filter
       inkscape:collect="always"
       id="filter4756"
       color-interpolation-filters="sRGB">
      <feGaussianBlur
         inkscape:collect="always"
         stdDeviation="0.097062588"
         id="feGaussianBlur4758" />
    </filter>
    <filter
       inkscape:collect="always"
       id="filter4760"
       color-interpolation-filters="sRGB">
      <feGaussianBlur
         inkscape:collect="always"
         stdDeviation="0.048531294"
         id="feGaussianBlur4762" />
    </filter>
    <filter
       inkscape:collect="always"
       id="filter4860"
       color-interpolation-filters="sRGB">
      <feGaussianBlur
         inkscape:collect="always"
         stdDeviation="0.59"
         id="feGaussianBlur4862" />
    </filter>
    <filter
       inkscape:collect="always"
       id="filter4886"
       color-interpolation-filters="sRGB">
      <feGaussianBlur
         inkscape:collect="always"
         stdDeviation="0.63765625"
         id="feGaussianBlur4888" />
    </filter>
    <filter
       inkscape:collect="always"
       id="filter4980"
       color-interpolation-filters="sRGB">
      <feGaussianBlur
         inkscape:collect="always"
         stdDeviation="0.17621482"
         id="feGaussianBlur4982" />
    </filter>
    <filter
       inkscape:collect="always"
       id="filter5966"
       color-interpolation-filters="sRGB">
      <feGaussianBlur
         inkscape:collect="always"
         stdDeviation="0.6376562"
         id="feGaussianBlur5968" />
    </filter>
    <filter
       inkscape:collect="always"
       id="filter5986"
       color-interpolation-filters="sRGB">
      <feGaussianBlur
         inkscape:collect="always"
         stdDeviation="0.16059097"
         id="feGaussianBlur5988" />
    </filter>
    <filter
       inkscape:collect="always"
       id="filter6171"
       color-interpolation-filters="sRGB">
      <feGaussianBlur
         inkscape:collect="always"
         stdDeviation="0.80002208"
         id="feGaussianBlur6173" />
    </filter>
    <filter
       inkscape:collect="always"
       id="filter6198"
       color-interpolation-filters="sRGB">
      <feGaussianBlur
         inkscape:collect="always"
         stdDeviation="0.0913901"
         id="feGaussianBlur6200" />
    </filter>
    <filter
       inkscape:collect="always"
       id="filter6206"
       color-interpolation-filters="sRGB">
      <feGaussianBlur
         inkscape:collect="always"
         stdDeviation="0.058738272"
         id="feGaussianBlur6208" />
    </filter>
    <filter
       inkscape:collect="always"
       id="filter6210"
       color-interpolation-filters="sRGB">
      <feGaussianBlur
         inkscape:collect="always"
         stdDeviation="0.0913901"
         id="feGaussianBlur6212" />
    </filter>
    <filter
       inkscape:collect="always"
       id="filter6218"
       color-interpolation-filters="sRGB">
      <feGaussianBlur
         inkscape:collect="always"
         stdDeviation="0.032739365"
         id="feGaussianBlur6220" />
    </filter>
    <filter
       inkscape:collect="always"
       id="filter6226"
       color-interpolation-filters="sRGB">
      <feGaussianBlur
         inkscape:collect="always"
         stdDeviation="0.032739365"
         id="feGaussianBlur6228" />
    </filter>
    <filter
       inkscape:collect="always"
       id="filter6230"
       color-interpolation-filters="sRGB">
      <feGaussianBlur
         inkscape:collect="always"
         stdDeviation="0.058738272"
         id="feGaussianBlur6232" />
    </filter>
    <filter
       inkscape:collect="always"
       id="filter6234"
       color-interpolation-filters="sRGB">
      <feGaussianBlur
         inkscape:collect="always"
         stdDeviation="0.058738272"
         id="feGaussianBlur6236" />
    </filter>
    <inkscape:path-effect
       is_visible="true"
       id="path-effect8020"
       effect="spiro" />
  </defs>
  <sodipodi:namedview
     id="base"
     pagecolor="#ffffff"
     bordercolor="#666666"
     borderopacity="1.0"
     inkscape:pageopacity="0"
     inkscape:pageshadow="2"
     inkscape:zoom="6.2777137"
     inkscape:cx="10.090589"
     inkscape:cy="9.4878064"
     inkscape:document-units="px"
     inkscape:current-layer="layer1"
     showgrid="false"
     inkscape:showpageshadow="false"
     showguides="true"
     inkscape:guide-bbox="true"
     inkscape:window-width="1250"
     inkscape:window-height="725"
     inkscape:window-x="1741"
     inkscape:window-y="41"
     inkscape:window-maximized="0" />
  <metadata
     id="metadata7">
    <rdf:RDF>
      <cc:Work
         rdf:about="">
        <dc:format>image/svg+xml</dc:format>
        <dc:type
           rdf:resource="http://purl.org/dc/dcmitype/StillImage" />
        <dc:title></dc:title>
      </cc:Work>
    </rdf:RDF>
  </metadata>
  <g
     inkscape:label="Layer 1"
     inkscape:groupmode="layer"
     id="layer1"
     transform="translate(0,-1033.3622)">
    <g
       id="g6333"
       transform="translate(-33.199667,1.3279867)">
      <path
         transform="matrix(0.93548387,0,0,0.93548387,7.3065223,843.95404)"
         d="m -29.198359,92.099266 c 0,5.881177 -4.767636,10.648814 -10.648813,10.648814 -5.881176,0 -10.648812,-4.767637 -10.648812,-10.648814 0,-5.881177 4.767636,-10.648812 10.648812,-10.648812 5.881177,0 10.648813,4.767635 10.648813,10.648812 z"
         sodipodi:ry="10.648812"
         sodipodi:rx="10.648812"
         sodipodi:cy="92.099266"
         sodipodi:cx="-39.847172"
         id="path4329"
         style="opacity:0.74137932;fill:#6cc655;fill-opacity:1;stroke:none;filter:url(#filter4385)"
         sodipodi:type="arc" />
      <path
         sodipodi:type="arc"
         style="opacity:0.71982757;fill:#6cc655;fill-opacity:1;stroke:none;filter:url(#filter4395)"
         id="path4389"
         sodipodi:cx="-39.847172"
         sodipodi:cy="92.099266"
         sodipodi:rx="10.648812"
         sodipodi:ry="10.648812"
         d="m -29.198359,92.099266 c 0,5.881177 -4.767636,10.648814 -10.648813,10.648814 -5.881176,0 -10.648812,-4.767637 -10.648812,-10.648814 0,-5.881177 4.767636,-10.648812 10.648812,-10.648812 5.881177,0 10.648813,4.767635 10.648813,10.648812 z"
         transform="matrix(0.93548387,0,0,0.93548387,8.741623,814.5343)" />
      <path
         transform="matrix(0.69625157,0,0,0.69625157,32.517133,828.56105)"
         d="m -29.198359,92.099266 c 0,5.881177 -4.767636,10.648814 -10.648813,10.648814 -5.881176,0 -10.648812,-4.767637 -10.648812,-10.648814 0,-5.881177 4.767636,-10.648812 10.648812,-10.648812 5.881177,0 10.648813,4.767635 10.648813,10.648812 z"
         sodipodi:ry="10.648812"
         sodipodi:rx="10.648812"
         sodipodi:cy="92.099266"
         sodipodi:cx="-39.847172"
         id="path4399"
         style="opacity:0.625;fill:#6cc655;fill-opacity:1;stroke:none;filter:url(#filter4401)"
         sodipodi:type="arc" />
      <path
         transform="matrix(0.53225805,0,0,0.53225805,8.230977,867.31236)"
         d="m -26.106769,66.67952 c 0,5.501746 -4.767635,9.961793 -10.648812,9.961793 -5.881177,0 -10.648812,-4.460047 -10.648812,-9.961793 0,-5.501747 4.767635,-9.961793 10.648812,-9.961793 5.881177,0 10.648812,4.460046 10.648812,9.961793 z"
         sodipodi:ry="9.9617929"
         sodipodi:rx="10.648812"
         sodipodi:cy="66.67952"
         sodipodi:cx="-36.755581"
         id="path4410"
         style="opacity:0.625;fill:#ff0000;fill-opacity:1;stroke:none"
         sodipodi:type="arc" />
      <path
         sodipodi:type="arc"
         style="opacity:0.74137932;fill:#6cc655;fill-opacity:1;stroke:none;filter:url(#filter4385)"
         id="path4412"
         sodipodi:cx="-39.847172"
         sodipodi:cy="92.099266"
         sodipodi:rx="10.648812"
         sodipodi:ry="10.648812"
         d="m -29.198359,92.099266 c 0,5.881177 -4.767636,10.648814 -10.648813,10.648814 -5.881176,0 -10.648812,-4.767637 -10.648812,-10.648814 0,-5.881177 4.767636,-10.648812 10.648812,-10.648812 5.881177,0 10.648813,4.767635 10.648813,10.648812 z"
         transform="matrix(0.93548387,0,0,0.93548387,-38.72383,864.56465)" />
      <path
         transform="matrix(0.93548387,0,0,0.93548387,-37.288729,835.14491)"
         d="m -29.198359,92.099266 c 0,5.881177 -4.767636,10.648814 -10.648813,10.648814 -5.881176,0 -10.648812,-4.767637 -10.648812,-10.648814 0,-5.881177 4.767636,-10.648812 10.648812,-10.648812 5.881177,0 10.648813,4.767635 10.648813,10.648812 z"
         sodipodi:ry="10.648812"
         sodipodi:rx="10.648812"
         sodipodi:cy="92.099266"
         sodipodi:cx="-39.847172"
         id="path4414"
         style="opacity:0.71982757;fill:#6cc655;fill-opacity:1;stroke:none;filter:url(#filter4395)"
         sodipodi:type="arc" />
      <path
         sodipodi:type="arc"
         style="opacity:0.625;fill:#6cc655;fill-opacity:1;stroke:none;filter:url(#filter4401)"
         id="path4416"
         sodipodi:cx="-39.847172"
         sodipodi:cy="92.099266"
         sodipodi:rx="10.648812"
         sodipodi:ry="10.648812"
         d="m -29.198359,92.099266 c 0,5.881177 -4.767636,10.648814 -10.648813,10.648814 -5.881176,0 -10.648812,-4.767637 -10.648812,-10.648814 0,-5.881177 4.767636,-10.648812 10.648812,-10.648812 5.881177,0 10.648813,4.767635 10.648813,10.648812 z"
         transform="matrix(0.69625157,0,0,0.69625157,-18.371182,852.08644)" />
      <path
         sodipodi:type="arc"
         style="opacity:0.625;fill:#ff0000;fill-opacity:1;stroke:none"
         id="path4418"
         sodipodi:cx="-36.755581"
         sodipodi:cy="66.67952"
         sodipodi:rx="10.648812"
         sodipodi:ry="9.9617929"
         d="m -26.106769,66.67952 c 0,5.501746 -4.767635,9.961793 -10.648812,9.961793 -5.881177,0 -10.648812,-4.460047 -10.648812,-9.961793 0,-5.501747 4.767635,-9.961793 10.648812,-9.961793 5.881177,0 10.648812,4.460046 10.648812,9.961793 z"
         transform="matrix(0.53225805,0,0,0.53225805,-37.799375,887.92297)" />
    </g>
    <g
       id="g5922"
       transform="translate(0,-119.65001)">
      <rect
         ry="9.0539989"
         y="952.36218"
         x="120"
         height="100"
         width="100"
         id="rect4327"
         style="fill:#ffffff;fill-opacity:1;stroke:none" />
      <path
         style="opacity:0.7;fill:#000000;fill-opacity:1;stroke:none;filter:url(#filter4886)"
         d="m 129.0624,953.19255 c -5.01593,0 -9.06252,4.04658 -9.06252,9.0625 l 0,18.46875 100.00024,0 0,-18.46875 c 0,-5.01592 -4.04659,-9.0625 -9.06253,-9.0625 l -81.87519,0 z"
         id="path4864"
         inkscape:connector-curvature="0" />
      <path
         inkscape:connector-curvature="0"
         id="rect4471"
         d="m 129.0625,952.36218 c -5.01591,0 -9.06249,4.04658 -9.06249,9.0625 l 0,18.46875 99.99999,0 0,-18.46875 c 0,-5.01592 -4.04659,-9.0625 -9.0625,-9.0625 l -81.875,0 z"
         style="fill:#b0b0b0;fill-opacity:1;stroke:none" />
      <path
         style="fill:#e5e5e5;fill-opacity:1;stroke:none"
         d="m 120,1034.3622 0,9.0463 c 0,4.9557 4.04658,8.9537 9.0625,8.9537 l 81.875,0 c 5.01592,0 9.0625,-3.998 9.0625,-8.9537 l 0,-9.0463 -100,0 z"
         id="path4555"
         inkscape:connector-curvature="0" />
      <path
         inkscape:connector-curvature="0"
         id="rect4476"
         d="m 120,1030.3622 0,9.0463 c 0,4.9557 4.04658,8.9537 9.0625,8.9537 l 81.87499,0 c 5.01592,0 9.06251,-3.998 9.06251,-8.9537 l 0,-9.0463 -100,0 z"
         style="fill:#e5e5e5;fill-opacity:1;stroke:none;filter:url(#filter4860)" />
    </g>
    <path
       inkscape:connector-curvature="0"
       id="path5935"
       d="m 248.91491,952.36217 c -5.01591,0 -9.06249,4.04658 -9.06249,9.0625 l 0,18.46875 99.99999,0 0,-18.46875 c 0,-5.01592 -4.04659,-9.0625 -9.0625,-9.0625 l -81.875,0 z"
       style="fill:#b0b0b0;fill-opacity:1;stroke:none" />
    <rect
       ry="9.0539989"
       y="952.36218"
       x="120"
       height="100"
       width="100"
       id="rect5931"
       style="fill:#ffffff;fill-opacity:1;stroke:none" />
    <path
       style="fill:#e5e5e5;fill-opacity:1;stroke:none"
       d="m 240,1034.3622 0,9.0463 c 0,4.9557 4.04658,8.9537 9.0625,8.9537 l 81.875,0 c 5.01592,0 9.0625,-3.998 9.0625,-8.9537 l 0,-9.0463 -100,0 z"
       id="path5937"
       inkscape:connector-curvature="0" />
    <path
       inkscape:connector-curvature="0"
       id="path5939"
       d="m 240,1030.3622 0,9.0463 c 0,4.9557 4.04658,8.9537 9.0625,8.9537 l 81.87499,0 c 5.01592,0 9.06251,-3.998 9.06251,-8.9537 l 0,-9.0463 -100,0 z"
       style="fill:#e5e5e5;fill-opacity:1;stroke:none;filter:url(#filter4860)" />
    <path
       style="fill:#b0b0b0;fill-opacity:1;stroke:none;filter:url(#filter5966)"
       d="m 129.0625,953.96237 c -5.01591,0 -9.06249,4.04658 -9.06249,9.0625 l 0,18.46875 99.99999,0 0,-18.46875 c 0,-5.01592 -4.04659,-9.0625 -9.0625,-9.0625 l -81.875,0 z"
       id="path5956"
       inkscape:connector-curvature="0"
       transform="matrix(1.0265669,0,0,1,115.48362,-9.9999997e-6)" />
    <rect
       ry="5.6253862"
       y="1061.7697"
       x="150.79037"
       height="79.184853"
       width="52.419235"
       id="rect5996"
       style="fill:#222222;fill-opacity:1;stroke:none" />
    <rect
       style="fill:#ffffff;fill-opacity:1;stroke:none"
       id="rect5998"
       width="33.68605"
       height="51.431469"
       x="165.52101"
       y="1070.0282" />
    <rect
       y="1070.0282"
       x="154.59341"
       height="51.431469"
       width="8.767746"
       id="rect6000"
       style="fill:#ffffff;fill-opacity:1;stroke:none" />
    <path
       style="opacity:0.7;fill:#222222;fill-opacity:0.94117647;stroke:none;filter:url(#filter6171)"
       d="m 86.582839,1068.2177 0,60.2578 46.411811,0 0,-60.2578 -46.411811,0 z m 0.661676,2.2751 8.85385,0 0,52.0106 -8.85385,0 0,-52.0106 z m 11.027925,0 33.96601,0 0,52.0106 -33.96601,0 0,-52.0106 z"
       id="rect4608"
       inkscape:connector-curvature="0" />
    <path
       style="opacity:0.8;fill:#222222;fill-opacity:1;stroke:none"
       d="m -50.24822,1063.3179 c -3.116464,0 -5.625,2.5086 -5.625,5.625 l 0,67.9375 c 0,3.1165 2.508536,5.625 5.625,5.625 l 41.1875,0 c 3.11646,0 5.625,-2.5085 5.625,-5.625 l 0,-67.9375 c 0,-3.1164 -2.50854,-5.625 -5.625,-5.625 l -41.1875,0 z m -1.8125,8.25 8.78125,0 0,51.4375 -8.78125,0 0,-51.4375 z m 10.9375,0 33.6875,0 0,51.4375 -33.6875,0 0,-51.4375 z"
       id="rect6031"
       inkscape:connector-curvature="0" />
    <g
       id="g6238"
       transform="translate(-25.563744,22.575773)">
      <rect
         style="opacity:0.6;fill:#6cc655;fill-opacity:1;stroke:none;filter:url(#filter4980)"
         id="rect4962"
         width="12.815622"
         height="10.679687"
         x="-60.129639"
         y="996.34448"
         ry="0" />
      <rect
         ry="0"
         y="997.64539"
         x="-61.729553"
         height="10.679687"
         width="12.815622"
         id="rect4463"
         style="opacity:0.8;fill:#6cc655;fill-opacity:1;stroke:none;filter:url(#filter6206)" />
      <rect
         transform="matrix(0.6116041,0,0,0.6116041,-15.689824,374.74045)"
         style="opacity:0.9;fill:#6cbe55;fill-opacity:1;stroke:none;filter:url(#filter4512)"
         id="rect4465"
         width="16.488483"
         height="13.396894"
         x="-64.579895"
         y="1042.7439"
         ry="0" />
      <rect
         ry="0"
         y="1002.4024"
         x="-45.211899"
         height="5.9526119"
         width="7.1431341"
         id="rect4467"
         style="opacity:0.8;fill:#63c655;fill-opacity:1;stroke:none;filter:url(#filter6226)" />
      <rect
         style="opacity:0.9;fill:#ff0000;fill-opacity:1;stroke:none;filter:url(#filter4756)"
         id="rect4469"
         width="5.294323"
         height="4.4119358"
         x="-43.68261"
         y="993.18817"
         ry="0" />
      <rect
         ry="0"
         y="981.29736"
         x="-36.619236"
         height="10.679687"
         width="12.815622"
         id="rect4956"
         style="opacity:0.7;fill:#6cc655;fill-opacity:1;stroke:none;filter:url(#filter6234)" />
      <rect
         style="opacity:0.8;fill:#6cc655;fill-opacity:1;stroke:none;filter:url(#filter6230)"
         id="rect4492"
         width="12.815622"
         height="10.679687"
         x="-39.119225"
         y="978.69702"
         ry="0" />
      <rect
         style="opacity:0.8;fill:#ff0000;fill-opacity:1;stroke:none;filter:url(#filter6198)"
         id="rect4984"
         width="10.084424"
         height="8.1935959"
         x="-72.353935"
         y="1005.8831"
         ry="0" />
      <rect
         ry="0"
         y="1004.3835"
         x="-73.854561"
         height="8.1935959"
         width="10.084424"
         id="rect4494"
         style="opacity:0.9;fill:#ff0000;fill-opacity:1;stroke:none;filter:url(#filter6210)" />
      <rect
         ry="0"
         y="1003.9272"
         x="-72.824142"
         height="9.7327862"
         width="11.679343"
         id="rect4990"
         style="opacity:0.7;fill:#6ce037;fill-opacity:1;stroke:none;filter:url(#filter5986)"
         transform="matrix(0.6116041,0,0,0.6116041,-16.289626,375.14044)" />
      <rect
         transform="matrix(0.6116041,0,0,0.6116041,-17.690141,373.84061)"
         style="opacity:0.9;fill:#6ce037;fill-opacity:1;stroke:none;filter:url(#filter4508)"
         id="rect4496"
         width="11.679343"
         height="9.7327862"
         x="-72.824142"
         y="1003.9272"
         ry="0" />
      <rect
         ry="0"
         y="983.70416"
         x="-52.60714"
         height="4.4119358"
         width="5.294323"
         id="rect4498"
         style="opacity:0.8;fill:#ef0000;fill-opacity:1;stroke:none;filter:url(#filter4760)" />
      <rect
         ry="0"
         y="992.38818"
         x="-42.982609"
         height="4.4119358"
         width="5.294323"
         id="rect6059"
         style="opacity:0.7;fill:#ff0000;fill-opacity:1;stroke:none;filter:url(#filter4756)" />
      <rect
         style="opacity:0.8;fill:#ef0000;fill-opacity:1;stroke:none;filter:url(#filter4760)"
         id="rect6111"
         width="5.294323"
         height="4.4119358"
         x="-51.707458"
         y="983.00427"
         ry="0" />
      <rect
         style="opacity:0.7;fill:#63c655;fill-opacity:1;stroke:none;filter:url(#filter6218)"
         id="rect6113"
         width="7.1431341"
         height="5.9526119"
         x="-44.011936"
         y="1003.5021"
         ry="0" />
      <rect
         ry="0"
         y="1042.7439"
         x="-64.579895"
         height="13.396894"
         width="16.488483"
         id="rect6115"
         style="opacity:0.8;fill:#6cbe55;fill-opacity:1;stroke:none;filter:url(#filter4512)"
         transform="matrix(0.6116041,0,0,0.6116041,-13.689824,372.74045)" />
    </g>
    <g
       id="g6282"
       transform="matrix(0.23823688,0,0,0.23772979,0.84405847,780.79787)">
      <rect
         ry="5.6253862"
         y="1062.7698"
         x="23.790382"
         height="79.184853"
         width="52.419235"
         id="rect3781"
         style="fill:#222222;fill-opacity:1;stroke:none" />
      <rect
         style="fill:#ffffff;fill-opacity:1;stroke:none"
         id="rect3783"
         width="33.68605"
         height="51.431469"
         x="38.166348"
         y="1071.0283" />
      <rect
         y="1071.0283"
         x="27.23876"
         height="51.431469"
         width="10.293667"
         id="rect3787"
         style="fill:#ffffff;fill-opacity:1;stroke:none" />
    </g>
    <path
       style="fill:none;stroke:#222222;stroke-width:2;stroke-linecap:round;stroke-linejoin:round;stroke-miterlimit:4;stroke-opacity:1;stroke-dasharray:none"
       d="m 18.674865,1018.7803 c 1.556774,-0.842 3.202695,-2.0269 3.293262,-3.6707 -0.02185,-2.0481 -1.722028,-3.688 -3.092394,-5.2719 -1.166931,-1.3299 -1.877113,-3.0591 -1.526905,-4.6453 0.350206,-1.5862 1.802288,-2.6328 3.499808,-3.053 1.879135,-0.4546 4.077475,-0.3373 5.701948,0.6194 2.482441,1.4893 2.799707,4.8526 0.511346,6.576 -0.340459,0.2478 -0.693364,0.4555 -1.056921,0.6271"
       id="path6297-2"
       inkscape:connector-curvature="0"
       sodipodi:nodetypes="ccczcccc" />
    <path
       sodipodi:nodetypes="ccczcccssc"
       inkscape:connector-curvature="0"
       id="path7500"
       d="m 1.6751008,1021.9346 c 1.2921875,-0.9043 2.658372,-2.1766 2.733546,-3.9419 -0.018132,-2.1993 -1.4293562,-3.9603 -2.5668169,-5.6611 -0.96860126,-1.4281 -1.55808286,-3.285 -1.26739536,-4.9883 0.2906855,-1.7033 1.49597416,-2.8272 2.90498746,-3.2784 1.5597613,-0.4881 3.3844751,-0.3623 4.732857,0.6653 2.060532,1.5991 2.323876,5.2106 0.4244393,7.0615 -0.6612189,0.716 -1.5099922,1.1208 -2.4130647,1.2941 -0.4515363,0.087 -0.9166474,0.1154 -1.3786764,0.096 -0.2310146,-0.01 -0.4612586,-0.031 -0.6886499,-0.063"
       style="fill:none;stroke:#222222;stroke-width:1;stroke-linecap:round;stroke-linejoin:round;stroke-miterlimit:4;stroke-opacity:1;stroke-dasharray:none" />
    <path
       style="fill:none;stroke:#222222;stroke-width:2;stroke-linecap:round;stroke-linejoin:round;stroke-miterlimit:4;stroke-opacity:1;stroke-dasharray:none"
       d="m -17,1051.2784 c 1.226117,-0.8388 2.078164,-1.9786 2.593783,-3.6567 0.529363,-1.7229 -0.128558,-3.3869 -0.884743,-5.2516 -0.688278,-1.3249 -1.293779,-3.0474 -1.017955,-4.6275 0.275824,-1.5802 1.419486,-2.6227 2.756458,-3.0414 1.480013,-0.4528 3.211429,-0.336 4.49087,0.6172 1.955177,1.4835 2.205057,4.8338 0.40274,6.5507 -0.627413,0.6642 -1.432787,1.0398 -2.289689,1.2005 -0.428449,0.08 -0.869779,0.1071 -1.308185,0.09"
       id="path6297"
       inkscape:connector-curvature="0"
       sodipodi:nodetypes="csczcccsc" />
    <path
       sodipodi:nodetypes="csczcccsssc"
       inkscape:connector-curvature="0"
       id="path4642"
       d="m 0.5,1051.8623 c 1.318059,-0.897 2.233997,-2.1159 2.788279,-3.9104 0.569059,-1.8424 -0.138197,-3.6219 -0.951085,-5.616 -0.73989,-1.4168 -1.390794,-3.2588 -1.094288,-4.9485 0.296508,-1.6898 1.525927,-2.8047 2.963153,-3.2524 1.590993,-0.4842 3.45224,-0.3593 4.827621,0.66 2.101788,1.5864 2.370405,5.1692 0.43294,7.0052 -0.67446,0.7103 -1.540225,1.1119 -2.461382,1.2838 -0.460577,0.086 -0.935001,0.1145 -1.406281,0.096 -0.235641,-0.01 -0.470494,-0.031 -0.702438,-0.062 -0.115974,-0.015 -0.231218,-0.034 -0.34547,-0.056"
       style="fill:none;stroke:#222222;stroke-width:1;stroke-linecap:round;stroke-linejoin:round;stroke-miterlimit:4;stroke-opacity:1;stroke-dasharray:none" />
  </g>
</svg>
