<?xml version="1.0" encoding="UTF-8" standalone="no"?>
<!-- Created with Inkscape (http://www.inkscape.org/) -->

<svg
   xmlns:dc="http://purl.org/dc/elements/1.1/"
   xmlns:cc="http://creativecommons.org/ns#"
   xmlns:rdf="http://www.w3.org/1999/02/22-rdf-syntax-ns#"
   xmlns:svg="http://www.w3.org/2000/svg"
   xmlns="http://www.w3.org/2000/svg"
   xmlns:sodipodi="http://sodipodi.sourceforge.net/DTD/sodipodi-0.dtd"
   xmlns:inkscape="http://www.inkscape.org/namespaces/inkscape"
   width="100"
   height="100"
   id="svg2"
   version="1.1"
   inkscape:version="0.48.2 r9819"
   inkscape:export-filename="/Users/wit/Workspace/Misc/page2reader/artwork/logo-144x144.png"
   inkscape:export-xdpi="129.60001"
   inkscape:export-ydpi="129.60001"
   sodipodi:docname="logo.svg">
  <defs
     id="defs4">
    <inkscape:path-effect
       effect="spiro"
       id="path-effect8020"
       is_visible="true" />
    <filter
       inkscape:collect="always"
       id="filter4385">
      <feGaussianBlur
         inkscape:collect="always"
         stdDeviation="0.18048834"
         id="feGaussianBlur4387" />
    </filter>
    <filter
       inkscape:collect="always"
       id="filter4395">
      <feGaussianBlur
         inkscape:collect="always"
         stdDeviation="0.36097669"
         id="feGaussianBlur4397" />
    </filter>
    <filter
       inkscape:collect="always"
       id="filter4401"
       x="-0.10677966"
       width="1.2135593"
       y="-0.10677966"
       height="1.2135593">
      <feGaussianBlur
         inkscape:collect="always"
         stdDeviation="0.94756381"
         id="feGaussianBlur4403" />
    </filter>
    <filter
       inkscape:collect="always"
       id="filter4508">
      <feGaussianBlur
         inkscape:collect="always"
         stdDeviation="0.26765162"
         id="feGaussianBlur4510" />
    </filter>
    <filter
       inkscape:collect="always"
       id="filter4512">
      <feGaussianBlur
         inkscape:collect="always"
         stdDeviation="0.22414033"
         id="feGaussianBlur4514" />
    </filter>
    <filter
       inkscape:collect="always"
       id="filter4756">
      <feGaussianBlur
         inkscape:collect="always"
         stdDeviation="0.097062588"
         id="feGaussianBlur4758" />
    </filter>
    <filter
       inkscape:collect="always"
       id="filter4760">
      <feGaussianBlur
         inkscape:collect="always"
         stdDeviation="0.048531294"
         id="feGaussianBlur4762" />
    </filter>
    <filter
       inkscape:collect="always"
       id="filter4860">
      <feGaussianBlur
         inkscape:collect="always"
         stdDeviation="0.59"
         id="feGaussianBlur4862" />
    </filter>
    <filter
       inkscape:collect="always"
       id="filter4886">
      <feGaussianBlur
         inkscape:collect="always"
         stdDeviation="0.63765625"
         id="feGaussianBlur4888" />
    </filter>
    <filter
       inkscape:collect="always"
       id="filter4980">
      <feGaussianBlur
         inkscape:collect="always"
         stdDeviation="0.17621482"
         id="feGaussianBlur4982" />
    </filter>
    <filter
       inkscape:collect="always"
       id="filter5966">
      <feGaussianBlur
         inkscape:collect="always"
         stdDeviation="0.6376562"
         id="feGaussianBlur5968" />
    </filter>
    <filter
       inkscape:collect="always"
       id="filter5986">
      <feGaussianBlur
         inkscape:collect="always"
         stdDeviation="0.16059097"
         id="feGaussianBlur5988" />
    </filter>
    <filter
       inkscape:collect="always"
       id="filter6171">
      <feGaussianBlur
         inkscape:collect="always"
         stdDeviation="0.80002208"
         id="feGaussianBlur6173" />
    </filter>
    <filter
       inkscape:collect="always"
       id="filter6198">
      <feGaussianBlur
         inkscape:collect="always"
         stdDeviation="0.0913901"
         id="feGaussianBlur6200" />
    </filter>
    <filter
       inkscape:collect="always"
       id="filter6206">
      <feGaussianBlur
         inkscape:collect="always"
         stdDeviation="0.058738272"
         id="feGaussianBlur6208" />
    </filter>
    <filter
       inkscape:collect="always"
       id="filter6210">
      <feGaussianBlur
         inkscape:collect="always"
         stdDeviation="0.0913901"
         id="feGaussianBlur6212" />
    </filter>
    <filter
       inkscape:collect="always"
       id="filter6218">
      <feGaussianBlur
         inkscape:collect="always"
         stdDeviation="0.032739365"
         id="feGaussianBlur6220" />
    </filter>
    <filter
       inkscape:collect="always"
       id="filter6226">
      <feGaussianBlur
         inkscape:collect="always"
         stdDeviation="0.032739365"
         id="feGaussianBlur6228" />
    </filter>
    <filter
       inkscape:collect="always"
       id="filter6230">
      <feGaussianBlur
         inkscape:collect="always"
         stdDeviation="0.058738272"
         id="feGaussianBlur6232" />
    </filter>
    <filter
       inkscape:collect="always"
       id="filter6234">
      <feGaussianBlur
         inkscape:collect="always"
         stdDeviation="0.058738272"
         id="feGaussianBlur6236" />
    </filter>
  </defs>
  <sodipodi:namedview
     id="base"
     pagecolor="#ffffff"
     bordercolor="#666666"
     borderopacity="1.0"
     inkscape:pageopacity="0"
     inkscape:pageshadow="2"
     inkscape:zoom="3.0120785"
     inkscape:cx="49.410347"
     inkscape:cy="41.258931"
     inkscape:document-units="px"
     inkscape:current-layer="layer1"
     showgrid="false"
     inkscape:showpageshadow="false"
     showguides="true"
     inkscape:guide-bbox="true"
     inkscape:window-width="1280"
     inkscape:window-height="752"
     inkscape:window-x="1560"
     inkscape:window-y="57"
     inkscape:window-maximized="0" />
  <metadata
     id="metadata7">
    <rdf:RDF>
      <cc:Work
         rdf:about="">
        <dc:format>image/svg+xml</dc:format>
        <dc:type
           rdf:resource="http://purl.org/dc/dcmitype/StillImage" />
        <dc:title></dc:title>
      </cc:Work>
    </rdf:RDF>
  </metadata>
  <g
     inkscape:label="Layer 1"
     inkscape:groupmode="layer"
     id="layer1"
     transform="translate(0,-952.36218)">
    <g
       id="g6333"
       transform="translate(-33.199667,1.3279867)">
      <path
         transform="matrix(0.93548387,0,0,0.93548387,7.3065223,843.95404)"
         d="m -29.198359,92.099266 c 0,5.881177 -4.767636,10.648814 -10.648813,10.648814 -5.881176,0 -10.648812,-4.767637 -10.648812,-10.648814 0,-5.881177 4.767636,-10.648812 10.648812,-10.648812 5.881177,0 10.648813,4.767635 10.648813,10.648812 z"
         sodipodi:ry="10.648812"
         sodipodi:rx="10.648812"
         sodipodi:cy="92.099266"
         sodipodi:cx="-39.847172"
         id="path4329"
         style="opacity:0.74137932;fill:#6cc655;fill-opacity:1;stroke:none;filter:url(#filter4385)"
         sodipodi:type="arc" />
      <path
         sodipodi:type="arc"
         style="opacity:0.71982757;fill:#6cc655;fill-opacity:1;stroke:none;filter:url(#filter4395)"
         id="path4389"
         sodipodi:cx="-39.847172"
         sodipodi:cy="92.099266"
         sodipodi:rx="10.648812"
         sodipodi:ry="10.648812"
         d="m -29.198359,92.099266 c 0,5.881177 -4.767636,10.648814 -10.648813,10.648814 -5.881176,0 -10.648812,-4.767637 -10.648812,-10.648814 0,-5.881177 4.767636,-10.648812 10.648812,-10.648812 5.881177,0 10.648813,4.767635 10.648813,10.648812 z"
         transform="matrix(0.93548387,0,0,0.93548387,8.741623,814.5343)" />
      <path
         transform="matrix(0.69625157,0,0,0.69625157,32.517133,828.56105)"
         d="m -29.198359,92.099266 c 0,5.881177 -4.767636,10.648814 -10.648813,10.648814 -5.881176,0 -10.648812,-4.767637 -10.648812,-10.648814 0,-5.881177 4.767636,-10.648812 10.648812,-10.648812 5.881177,0 10.648813,4.767635 10.648813,10.648812 z"
         sodipodi:ry="10.648812"
         sodipodi:rx="10.648812"
         sodipodi:cy="92.099266"
         sodipodi:cx="-39.847172"
         id="path4399"
         style="opacity:0.625;fill:#6cc655;fill-opacity:1;stroke:none;filter:url(#filter4401)"
         sodipodi:type="arc" />
      <path
         transform="matrix(0.53225805,0,0,0.53225805,8.230977,867.31236)"
         d="m -26.106769,66.67952 c 0,5.501746 -4.767635,9.961793 -10.648812,9.961793 -5.881177,0 -10.648812,-4.460047 -10.648812,-9.961793 0,-5.501747 4.767635,-9.961793 10.648812,-9.961793 5.881177,0 10.648812,4.460046 10.648812,9.961793 z"
         sodipodi:ry="9.9617929"
         sodipodi:rx="10.648812"
         sodipodi:cy="66.67952"
         sodipodi:cx="-36.755581"
         id="path4410"
         style="opacity:0.625;fill:#ff0000;fill-opacity:1;stroke:none"
         sodipodi:type="arc" />
      <path
         sodipodi:type="arc"
         style="opacity:0.74137932;fill:#6cc655;fill-opacity:1;stroke:none;filter:url(#filter4385)"
         id="path4412"
         sodipodi:cx="-39.847172"
         sodipodi:cy="92.099266"
         sodipodi:rx="10.648812"
         sodipodi:ry="10.648812"
         d="m -29.198359,92.099266 c 0,5.881177 -4.767636,10.648814 -10.648813,10.648814 -5.881176,0 -10.648812,-4.767637 -10.648812,-10.648814 0,-5.881177 4.767636,-10.648812 10.648812,-10.648812 5.881177,0 10.648813,4.767635 10.648813,10.648812 z"
         transform="matrix(0.93548387,0,0,0.93548387,-38.72383,864.56465)" />
      <path
         transform="matrix(0.93548387,0,0,0.93548387,-37.288729,835.14491)"
         d="m -29.198359,92.099266 c 0,5.881177 -4.767636,10.648814 -10.648813,10.648814 -5.881176,0 -10.648812,-4.767637 -10.648812,-10.648814 0,-5.881177 4.767636,-10.648812 10.648812,-10.648812 5.881177,0 10.648813,4.767635 10.648813,10.648812 z"
         sodipodi:ry="10.648812"
         sodipodi:rx="10.648812"
         sodipodi:cy="92.099266"
         sodipodi:cx="-39.847172"
         id="path4414"
         style="opacity:0.71982757;fill:#6cc655;fill-opacity:1;stroke:none;filter:url(#filter4395)"
         sodipodi:type="arc" />
      <path
         sodipodi:type="arc"
         style="opacity:0.625;fill:#6cc655;fill-opacity:1;stroke:none;filter:url(#filter4401)"
         id="path4416"
         sodipodi:cx="-39.847172"
         sodipodi:cy="92.099266"
         sodipodi:rx="10.648812"
         sodipodi:ry="10.648812"
         d="m -29.198359,92.099266 c 0,5.881177 -4.767636,10.648814 -10.648813,10.648814 -5.881176,0 -10.648812,-4.767637 -10.648812,-10.648814 0,-5.881177 4.767636,-10.648812 10.648812,-10.648812 5.881177,0 10.648813,4.767635 10.648813,10.648812 z"
         transform="matrix(0.69625157,0,0,0.69625157,-18.371182,852.08644)" />
      <path
         sodipodi:type="arc"
         style="opacity:0.625;fill:#ff0000;fill-opacity:1;stroke:none"
         id="path4418"
         sodipodi:cx="-36.755581"
         sodipodi:cy="66.67952"
         sodipodi:rx="10.648812"
         sodipodi:ry="9.9617929"
         d="m -26.106769,66.67952 c 0,5.501746 -4.767635,9.961793 -10.648812,9.961793 -5.881177,0 -10.648812,-4.460047 -10.648812,-9.961793 0,-5.501747 4.767635,-9.961793 10.648812,-9.961793 5.881177,0 10.648812,4.460046 10.648812,9.961793 z"
         transform="matrix(0.53225805,0,0,0.53225805,-37.799375,887.92297)" />
    </g>
    <g
       id="g5922"
       transform="translate(0,-119.65001)">
      <rect
         ry="9.0539989"
         y="952.36218"
         x="120"
         height="100"
         width="100"
         id="rect4327"
         style="fill:#ffffff;fill-opacity:1;stroke:none" />
      <path
         style="opacity:0.7;fill:#000000;fill-opacity:1;stroke:none;filter:url(#filter4886)"
         d="m 129.0624,953.19255 c -5.01593,0 -9.06252,4.04658 -9.06252,9.0625 l 0,18.46875 100.00024,0 0,-18.46875 c 0,-5.01592 -4.04659,-9.0625 -9.06253,-9.0625 l -81.87519,0 z"
         id="path4864"
         inkscape:connector-curvature="0" />
      <path
         inkscape:connector-curvature="0"
         id="rect4471"
         d="m 129.0625,952.36218 c -5.01591,0 -9.06249,4.04658 -9.06249,9.0625 l 0,18.46875 99.99999,0 0,-18.46875 c 0,-5.01592 -4.04659,-9.0625 -9.0625,-9.0625 l -81.875,0 z"
         style="fill:#b0b0b0;fill-opacity:1;stroke:none" />
      <path
         style="fill:#e5e5e5;fill-opacity:1;stroke:none"
         d="m 120,1034.3622 0,9.0463 c 0,4.9557 4.04658,8.9537 9.0625,8.9537 l 81.875,0 c 5.01592,0 9.0625,-3.998 9.0625,-8.9537 l 0,-9.0463 -100,0 z"
         id="path4555"
         inkscape:connector-curvature="0" />
      <path
         inkscape:connector-curvature="0"
         id="rect4476"
         d="m 120,1030.3622 0,9.0463 c 0,4.9557 4.04658,8.9537 9.0625,8.9537 l 81.87499,0 c 5.01592,0 9.06251,-3.998 9.06251,-8.9537 l 0,-9.0463 -100,0 z"
         style="fill:#e5e5e5;fill-opacity:1;stroke:none;filter:url(#filter4860)" />
    </g>
    <path
       inkscape:connector-curvature="0"
       id="path5935"
       d="m 248.91491,952.36217 c -5.01591,0 -9.06249,4.04658 -9.06249,9.0625 l 0,18.46875 99.99999,0 0,-18.46875 c 0,-5.01592 -4.04659,-9.0625 -9.0625,-9.0625 l -81.875,0 z"
       style="fill:#b0b0b0;fill-opacity:1;stroke:none" />
    <rect
       ry="9.0539989"
       y="952.36218"
       x="0"
       height="100"
       width="100"
       id="rect5931"
       style="fill:#ffffff;fill-opacity:1;stroke:none;stroke-opacity:1" />
    <path
       style="fill:#e5e5e5;fill-opacity:1;stroke:none"
       d="m 240,1034.3622 0,9.0463 c 0,4.9557 4.04658,8.9537 9.0625,8.9537 l 81.875,0 c 5.01592,0 9.0625,-3.998 9.0625,-8.9537 l 0,-9.0463 -100,0 z"
       id="path5937"
       inkscape:connector-curvature="0" />
    <path
       inkscape:connector-curvature="0"
       id="path5939"
       d="m 240,1030.3622 0,9.0463 c 0,4.9557 4.04658,8.9537 9.0625,8.9537 l 81.87499,0 c 5.01592,0 9.06251,-3.998 9.06251,-8.9537 l 0,-9.0463 -100,0 z"
       style="fill:#e5e5e5;fill-opacity:1;stroke:none;filter:url(#filter4860)" />
    <path
       style="fill:#b0b0b0;fill-opacity:1;stroke:none;filter:url(#filter5966)"
       d="m 129.0625,953.96237 c -5.01591,0 -9.06249,4.04658 -9.06249,9.0625 l 0,18.46875 99.99999,0 0,-18.46875 c 0,-5.01592 -4.04659,-9.0625 -9.0625,-9.0625 l -81.875,0 z"
       id="path5956"
       inkscape:connector-curvature="0"
       transform="matrix(1.0265669,0,0,1,115.48362,-9.9999997e-6)" />
    <rect
       ry="5.6253862"
       y="1061.7697"
       x="150.79037"
       height="79.184853"
       width="52.419235"
       id="rect5996"
       style="fill:#222222;fill-opacity:1;stroke:none" />
    <rect
       style="fill:#ffffff;fill-opacity:1;stroke:none"
       id="rect5998"
       width="33.68605"
       height="51.431469"
       x="165.52101"
       y="1070.0282" />
    <rect
       y="1070.0282"
       x="154.59341"
       height="51.431469"
       width="8.767746"
       id="rect6000"
       style="fill:#ffffff;fill-opacity:1;stroke:none" />
    <path
       style="opacity:0.7;fill:#222222;fill-opacity:0.94117647;stroke:none;filter:url(#filter6171)"
       d="m 86.582839,1068.2177 0,60.2578 46.411811,0 0,-60.2578 -46.411811,0 z m 0.661676,2.2751 8.85385,0 0,52.0106 -8.85385,0 0,-52.0106 z m 11.027925,0 33.96601,0 0,52.0106 -33.96601,0 0,-52.0106 z"
       id="rect4608"
       inkscape:connector-curvature="0" />
    <path
       style="opacity:0.8;fill:#222222;fill-opacity:1;stroke:none"
       d="m -50.24822,1063.3179 c -3.116464,0 -5.625,2.5086 -5.625,5.625 l 0,67.9375 c 0,3.1165 2.508536,5.625 5.625,5.625 l 41.1875,0 c 3.11646,0 5.625,-2.5085 5.625,-5.625 l 0,-67.9375 c 0,-3.1164 -2.50854,-5.625 -5.625,-5.625 l -41.1875,0 z m -1.8125,8.25 8.78125,0 0,51.4375 -8.78125,0 0,-51.4375 z m 10.9375,0 33.6875,0 0,51.4375 -33.6875,0 0,-51.4375 z"
       id="rect6031"
       inkscape:connector-curvature="0" />
    <g
       id="g6238"
       transform="translate(-25.563744,22.575773)">
      <rect
         style="opacity:0.6;fill:#6cc655;fill-opacity:1;stroke:none;filter:url(#filter4980)"
         id="rect4962"
         width="12.815622"
         height="10.679687"
         x="-60.129639"
         y="996.34448"
         ry="0" />
      <rect
         ry="0"
         y="997.64539"
         x="-61.729553"
         height="10.679687"
         width="12.815622"
         id="rect4463"
         style="opacity:0.8;fill:#6cc655;fill-opacity:1;stroke:none;filter:url(#filter6206)" />
      <rect
         transform="matrix(0.6116041,0,0,0.6116041,-15.689824,374.74045)"
         style="opacity:0.9;fill:#6cbe55;fill-opacity:1;stroke:none;filter:url(#filter4512)"
         id="rect4465"
         width="16.488483"
         height="13.396894"
         x="-64.579895"
         y="1042.7439"
         ry="0" />
      <rect
         ry="0"
         y="1002.4024"
         x="-45.211899"
         height="5.9526119"
         width="7.1431341"
         id="rect4467"
         style="opacity:0.8;fill:#63c655;fill-opacity:1;stroke:none;filter:url(#filter6226)" />
      <rect
         style="opacity:0.9;fill:#ff0000;fill-opacity:1;stroke:none;filter:url(#filter4756)"
         id="rect4469"
         width="5.294323"
         height="4.4119358"
         x="-43.68261"
         y="993.18817"
         ry="0" />
      <rect
         ry="0"
         y="981.29736"
         x="-36.619236"
         height="10.679687"
         width="12.815622"
         id="rect4956"
         style="opacity:0.7;fill:#6cc655;fill-opacity:1;stroke:none;filter:url(#filter6234)" />
      <rect
         style="opacity:0.8;fill:#6cc655;fill-opacity:1;stroke:none;filter:url(#filter6230)"
         id="rect4492"
         width="12.815622"
         height="10.679687"
         x="-39.119225"
         y="978.69702"
         ry="0" />
      <rect
         style="opacity:0.8;fill:#ff0000;fill-opacity:1;stroke:none;filter:url(#filter6198)"
         id="rect4984"
         width="10.084424"
         height="8.1935959"
         x="-72.353935"
         y="1005.8831"
         ry="0" />
      <rect
         ry="0"
         y="1004.3835"
         x="-73.854561"
         height="8.1935959"
         width="10.084424"
         id="rect4494"
         style="opacity:0.9;fill:#ff0000;fill-opacity:1;stroke:none;filter:url(#filter6210)" />
      <rect
         ry="0"
         y="1003.9272"
         x="-72.824142"
         height="9.7327862"
         width="11.679343"
         id="rect4990"
         style="opacity:0.7;fill:#6ce037;fill-opacity:1;stroke:none;filter:url(#filter5986)"
         transform="matrix(0.6116041,0,0,0.6116041,-16.289626,375.14044)" />
      <rect
         transform="matrix(0.6116041,0,0,0.6116041,-17.690141,373.84061)"
         style="opacity:0.9;fill:#6ce037;fill-opacity:1;stroke:none;filter:url(#filter4508)"
         id="rect4496"
         width="11.679343"
         height="9.7327862"
         x="-72.824142"
         y="1003.9272"
         ry="0" />
      <rect
         ry="0"
         y="983.70416"
         x="-52.60714"
         height="4.4119358"
         width="5.294323"
         id="rect4498"
         style="opacity:0.8;fill:#ef0000;fill-opacity:1;stroke:none;filter:url(#filter4760)" />
      <rect
         ry="0"
         y="992.38818"
         x="-42.982609"
         height="4.4119358"
         width="5.294323"
         id="rect6059"
         style="opacity:0.7;fill:#ff0000;fill-opacity:1;stroke:none;filter:url(#filter4756)" />
      <rect
         style="opacity:0.8;fill:#ef0000;fill-opacity:1;stroke:none;filter:url(#filter4760)"
         id="rect6111"
         width="5.294323"
         height="4.4119358"
         x="-51.707458"
         y="983.00427"
         ry="0" />
      <rect
         style="opacity:0.7;fill:#63c655;fill-opacity:1;stroke:none;filter:url(#filter6218)"
         id="rect6113"
         width="7.1431341"
         height="5.9526119"
         x="-44.011936"
         y="1003.5021"
         ry="0" />
      <rect
         ry="0"
         y="1042.7439"
         x="-64.579895"
         height="13.396894"
         width="16.488483"
         id="rect6115"
         style="opacity:0.8;fill:#6cbe55;fill-opacity:1;stroke:none;filter:url(#filter4512)"
         transform="matrix(0.6116041,0,0,0.6116041,-13.689824,372.74045)" />
    </g>
    <g
       id="g6282"
       transform="translate(13.045595,-98.589671)">
      <rect
         ry="5.6253862"
         y="1062.7698"
         x="23.790382"
         height="79.184853"
         width="52.419235"
         id="rect3781"
         style="fill:#222222;fill-opacity:1;stroke:none" />
      <rect
         style="fill:#ffffff;fill-opacity:1;stroke:none"
         id="rect3783"
         width="33.68605"
         height="51.431469"
         x="38.166348"
         y="1071.0283" />
      <rect
         y="1071.0283"
         x="27.23876"
         height="51.431469"
         width="10.293667"
         id="rect3787"
         style="fill:#ffffff;fill-opacity:1;stroke:none" />
    </g>
    <path
       style="fill:none;stroke:#6bdf38;stroke-width:5;stroke-linecap:round;stroke-linejoin:round;stroke-miterlimit:4;stroke-opacity:1;stroke-dasharray:none"
       d="m 17.915514,1043.6639 c 6.235742,-4.1163 12.828588,-9.9086 13.191358,-17.9451 -0.08752,-10.0122 -6.897693,-18.0292 -12.386776,-25.77191 -4.674203,-6.50141 -7.518884,-14.95468 -6.116109,-22.70904 1.402775,-7.75436 7.219169,-12.87072 14.018689,-14.9251 7.526995,-2.22185 16.332574,-1.64916 22.839502,3.02856 9.943568,7.28034 11.214401,23.72161 2.048234,32.14738 -3.190867,3.25951 -7.286803,5.10241 -11.644807,5.89131 -2.178993,0.3944 -4.423494,0.5254 -6.653123,0.4383 -1.114814,-0.044 -2.22591,-0.1417 -3.323239,-0.2886 -0.548665,-0.074 -1.093889,-0.1591 -1.634415,-0.2563"
       id="path6297"
       inkscape:connector-curvature="0"
       sodipodi:nodetypes="ccczcccsssc" />
    <path
       sodipodi:nodetypes="ccczccccc"
       inkscape:connector-curvature="0"
       id="path8010"
       d="m 17.915514,943.6639 c 6.235742,-4.1163 12.828588,-9.9086 13.191358,-17.9451 -0.08752,-10.0122 -6.897693,-18.0292 -12.386776,-25.77191 -4.674203,-6.50141 -7.518884,-14.95468 -6.116109,-22.70904 1.402775,-7.75436 7.219169,-12.87072 14.018689,-14.9251 7.526995,-2.22185 16.332574,-1.64916 22.839502,3.02856 9.943568,7.28034 11.214401,23.72161 2.048234,32.14738 -6.381735,6.51911 -16.383813,7.37121 -24.861813,5.45931 -0.40483,-0.089 -0.808279,-0.184 -1.210151,-0.2854"
       style="fill:none;stroke:#6bdf38;stroke-width:3;stroke-linecap:round;stroke-linejoin:round;stroke-miterlimit:4;stroke-opacity:1;stroke-dasharray:none" />
  </g>
</svg>
